<svg xmlns="http://www.w3.org/2000/svg" viewBox="0 0 96 96" role="img" aria-labelledby="title desc">
  <title id="title">Chrome Console Logger logo</title>
  <desc id="desc">A circular badge with browser window lines and a bug marker.</desc>
  <defs>
    <linearGradient id="bg" x1="0%" y1="0%" x2="100%" y2="100%">
      <stop offset="0%" stop-color="#0057b8"/>
      <stop offset="100%" stop-color="#0c8f6a"/>
    </linearGradient>
  </defs>
  <rect width="96" height="96" rx="24" fill="url(#bg)"/>
  <rect x="18" y="20" width="60" height="42" rx="10" fill="#fff8ef"/>
  <circle cx="28" cy="31" r="3" fill="#0057b8"/>
  <circle cx="38" cy="31" r="3" fill="#0c8f6a"/>
  <circle cx="48" cy="31" r="3" fill="#1f2328" opacity="0.45"/>
  <rect x="26" y="40" width="44" height="4" rx="2" fill="#1f2328" opacity="0.18"/>
  <rect x="26" y="48" width="28" height="4" rx="2" fill="#1f2328" opacity="0.18"/>
  <path d="M56 60c0-7.18 5.82-13 13-13s13 5.82 13 13-5.82 13-13 13-13-5.82-13-13Z" fill="#1f2328"/>
  <path d="M64 58c0-2.76 2.24-5 5-5s5 2.24 5 5v8h-10Z" fill="#fff8ef"/>
  <circle cx="66.5" cy="58" r="1.5" fill="#1f2328"/>
  <circle cx="71.5" cy="58" r="1.5" fill="#1f2328"/>
  <path d="M66 51l-2-4M72 51l2-4M61 56l-4-1M77 56l4-1" stroke="#fff8ef" stroke-linecap="round" stroke-width="2.5"/>
</svg>
